<svg width="108" height="42" viewBox="0 0 108 42" fill="none" xmlns="http://www.w3.org/2000/svg">
<path d="M11.196 8.06395V14.3639C10.53 14.4719 9.927 14.5469 9.38701 14.5889C8.84701 14.6369 8.28 14.6609 7.686 14.6609C5.184 14.6609 3.297 14.0969 2.025 12.9689C0.753004 11.8349 0.114004 10.1519 0.108004 7.91994C0.108004 6.39594 0.405004 5.12094 0.999004 4.09495C1.599 3.06895 2.442 2.30694 3.528 1.80894C4.62 1.30494 5.907 1.05294 7.389 1.05294C8.481 1.05294 9.618 1.19994 10.8 1.49394V2.80795C10.188 2.64594 9.618 2.53194 9.09001 2.46595C8.562 2.39995 8.031 2.36694 7.497 2.36694C5.673 2.36694 4.254 2.81394 3.24 3.70794C2.226 4.60194 1.719 5.98794 1.719 7.86594C1.719 11.5259 3.687 13.3559 7.623 13.3559C8.361 13.3559 9.066 13.3169 9.738 13.2389V8.06395H11.196ZM22.5721 10.1429H15.3991C15.4411 11.3309 15.7771 12.1949 16.4071 12.7349C17.0371 13.2689 17.9881 13.5359 19.2601 13.5359C20.0761 13.5359 21.0061 13.3919 22.0501 13.1039V14.2829C21.0181 14.5709 20.0221 14.7149 19.0621 14.7149C17.3521 14.7149 16.0591 14.3039 15.1831 13.4819C14.3071 12.6539 13.8691 11.3819 13.8691 9.66594C13.8691 8.57994 14.0431 7.66194 14.3911 6.91194C14.7451 6.15594 15.2521 5.58594 15.9121 5.20194C16.5781 4.81795 17.3761 4.62595 18.3061 4.62595C19.6801 4.62595 20.7331 5.06095 21.4651 5.93095C22.2031 6.80095 22.5721 8.06095 22.5721 9.71095V10.1429ZM18.2881 5.68795C17.3641 5.68795 16.6561 5.97294 16.1641 6.54294C15.6781 7.10695 15.4201 7.97695 15.3901 9.15294H21.1321C21.1021 7.97094 20.8501 7.09794 20.3761 6.53394C19.9021 5.96995 19.2061 5.68795 18.2881 5.68795ZM24.992 4.77894H26.252L26.369 6.05695H26.468C26.846 5.63094 27.326 5.29494 27.908 5.04894C28.49 4.80294 29.087 4.67994 29.699 4.67994C30.041 4.67994 30.374 4.70994 30.698 4.76994V6.14695C30.404 6.09894 30.05 6.07494 29.636 6.07494C29.084 6.07494 28.517 6.18894 27.935 6.41694C27.353 6.63894 26.876 6.96894 26.504 7.40694V14.5439H24.992V4.77894ZM40.2382 10.1429H33.0652C33.1072 11.3309 33.4432 12.1949 34.0732 12.7349C34.7032 13.2689 35.6542 13.5359 36.9262 13.5359C37.7422 13.5359 38.6722 13.3919 39.7162 13.1039V14.2829C38.6842 14.5709 37.6882 14.7149 36.7282 14.7149C35.0182 14.7149 33.7252 14.3039 32.8492 13.4819C31.9732 12.6539 31.5352 11.3819 31.5352 9.66594C31.5352 8.57994 31.7092 7.66194 32.0572 6.91194C32.4112 6.15594 32.9182 5.58594 33.5782 5.20194C34.2442 4.81795 35.0422 4.62595 35.9722 4.62595C37.3462 4.62595 38.3992 5.06095 39.1312 5.93095C39.8692 6.80095 40.2382 8.06095 40.2382 9.71095V10.1429ZM35.9542 5.68795C35.0302 5.68795 34.3222 5.97294 33.8302 6.54294C33.3442 7.10695 33.0862 7.97695 33.0562 9.15294H38.7982C38.7682 7.97094 38.5162 7.09794 38.0422 6.53394C37.5682 5.96995 36.8722 5.68795 35.9542 5.68795ZM42.658 4.77894H43.918L44.026 5.89495H44.125C44.599 5.48694 45.142 5.17494 45.754 4.95894C46.366 4.73695 47.005 4.62595 47.671 4.62595C48.817 4.62595 49.711 4.93495 50.353 5.55294C51.001 6.17094 51.325 7.13695 51.325 8.45094V14.5439H49.813V8.49594C49.813 7.59595 49.603 6.94794 49.183 6.55194C48.769 6.14994 48.16 5.94894 47.356 5.94894C46.786 5.94894 46.216 6.05694 45.646 6.27295C45.076 6.48895 44.584 6.81895 44.17 7.26295V14.5439H42.658V4.77894ZM58.6495 14.7149C57.0715 14.7149 55.8625 14.2949 55.0225 13.4549C54.1885 12.6089 53.7715 11.3459 53.7715 9.66594C53.7715 7.99194 54.2155 6.73494 55.1035 5.89495C55.9915 5.04895 57.2875 4.62595 58.9915 4.62595C59.8675 4.62595 60.6625 4.73095 61.3765 4.94095V6.19195C60.9865 6.08994 60.6115 6.01494 60.2515 5.96694C59.8915 5.91294 59.5105 5.88594 59.1085 5.88594C57.8305 5.88594 56.8795 6.18894 56.2555 6.79494C55.6375 7.39494 55.3285 8.34295 55.3285 9.63895C55.3285 10.9529 55.6195 11.9189 56.2015 12.5369C56.7835 13.1549 57.6505 13.4639 58.8025 13.4639C59.1865 13.4639 59.5825 13.4279 59.9905 13.3559C60.3985 13.2839 60.8605 13.1669 61.3765 13.0049V14.2559C60.5245 14.5619 59.6155 14.7149 58.6495 14.7149ZM63.5233 14.5439V4.77894H65.0353V14.5439H63.5233ZM64.2793 2.65494C63.9433 2.65494 63.6853 2.57694 63.5053 2.42094C63.3253 2.26494 63.2353 2.04294 63.2353 1.75494C63.2353 1.46694 63.3253 1.24494 63.5053 1.08894C63.6853 0.926944 63.9433 0.845945 64.2793 0.845945C64.6153 0.845945 64.8733 0.926944 65.0533 1.08894C65.2333 1.24494 65.3233 1.46694 65.3233 1.75494C65.3233 2.04294 65.2333 2.26494 65.0533 2.42094C64.8733 2.57694 64.6153 2.65494 64.2793 2.65494ZM71.4931 4.62595C72.4411 4.62595 73.2181 4.73995 73.8241 4.96795C74.4361 5.19595 74.8951 5.57695 75.2011 6.11094C75.5131 6.64494 75.6691 7.36494 75.6691 8.27095V14.5439H74.3911L74.2831 13.4369H74.1841C73.8181 13.8269 73.3441 14.1359 72.7621 14.3639C72.1861 14.5919 71.5801 14.7059 70.9441 14.7059C70.2481 14.7059 69.6511 14.5979 69.1531 14.3819C68.6611 14.1599 68.2861 13.8479 68.0281 13.4459C67.7761 13.0439 67.6501 12.5729 67.6501 12.0329C67.6501 11.1869 67.9561 10.5329 68.5681 10.0709C69.1861 9.60294 70.1731 9.30295 71.5291 9.17095L74.1751 8.88295V8.19894C74.1751 7.58095 74.0701 7.10094 73.8601 6.75894C73.6501 6.41094 73.3381 6.16794 72.9241 6.02994C72.5161 5.89194 71.9791 5.82294 71.3131 5.82294C70.8511 5.82294 70.3591 5.86194 69.8371 5.93995C69.3151 6.01795 68.8111 6.13794 68.3251 6.29994V5.11194C68.7811 4.95595 69.2911 4.83595 69.8551 4.75194C70.4191 4.66795 70.9651 4.62595 71.4931 4.62595ZM71.2861 13.5899C71.8261 13.5899 72.3451 13.4909 72.8431 13.2929C73.3411 13.0889 73.7851 12.7889 74.1751 12.3929V9.86394L71.6191 10.1429C70.7491 10.2449 70.1251 10.4369 69.7471 10.7189C69.3751 11.0009 69.1891 11.3999 69.1891 11.9159C69.1891 12.4499 69.3631 12.8639 69.7111 13.1579C70.0591 13.4459 70.5841 13.5899 71.2861 13.5899ZM82.5182 14.7059C81.6482 14.7059 80.8832 14.5349 80.2232 14.1929C79.5692 13.8449 79.0532 13.3109 78.6752 12.5909C78.3032 11.8709 78.1172 10.9619 78.1172 9.86394C78.1172 8.14194 78.5792 6.83694 79.5032 5.94894C80.4272 5.06094 81.7742 4.61694 83.5442 4.61694C84.2282 4.61694 84.9332 4.68294 85.6592 4.81494V-5.51939e-05H87.1712V14.5439H85.8932L85.7942 13.4189H85.6952C85.3172 13.8269 84.8552 14.1449 84.3092 14.3729C83.7632 14.5949 83.1662 14.7059 82.5182 14.7059ZM82.8332 13.4369C83.3852 13.4369 83.9042 13.3319 84.3902 13.1219C84.8762 12.9119 85.2992 12.5819 85.6592 12.1319V6.08394C85.0232 5.92194 84.3332 5.84094 83.5892 5.84094C82.2572 5.84094 81.2672 6.15894 80.6192 6.79494C79.9712 7.43094 79.6472 8.41194 79.6472 9.73794C79.6472 12.2039 80.7092 13.4369 82.8332 13.4369ZM94.4785 14.7149C93.5185 14.7149 92.6875 14.5319 91.9855 14.1659C91.2835 13.7999 90.7375 13.2389 90.3475 12.4829C89.9635 11.7269 89.7715 10.7849 89.7715 9.65694C89.7715 8.54694 89.9635 7.61694 90.3475 6.86694C90.7315 6.11694 91.2745 5.55594 91.9765 5.18394C92.6785 4.81195 93.5125 4.62595 94.4785 4.62595C95.9605 4.62595 97.1125 5.04595 97.9345 5.88594C98.7625 6.71995 99.1765 7.97695 99.1765 9.65694C99.1765 10.7669 98.9815 11.6999 98.5915 12.4559C98.2075 13.2119 97.6615 13.7789 96.9535 14.1569C96.2515 14.5289 95.4265 14.7149 94.4785 14.7149ZM94.4785 13.4819C96.5965 13.4819 97.6555 12.2129 97.6555 9.67495C97.6555 8.34295 97.3795 7.37695 96.8275 6.77694C96.2815 6.17094 95.4985 5.86794 94.4785 5.86794C93.4585 5.86794 92.6725 6.16794 92.1205 6.76795C91.5745 7.36794 91.3015 8.32794 91.3015 9.64795C91.3015 12.2039 92.3605 13.4819 94.4785 13.4819ZM101.773 4.77894H103.033L103.15 6.05695H103.249C103.627 5.63094 104.107 5.29494 104.689 5.04894C105.271 4.80294 105.868 4.67994 106.48 4.67994C106.822 4.67994 107.155 4.70994 107.479 4.76994V6.14695C107.185 6.09894 106.831 6.07494 106.417 6.07494C105.865 6.07494 105.298 6.18894 104.716 6.41694C104.134 6.63894 103.657 6.96894 103.285 7.40694V14.5439H101.773V4.77894ZM4.401 37.7059C3.531 37.7059 2.766 37.5349 2.106 37.1929C1.452 36.8449 0.936005 36.3109 0.558004 35.5909C0.186004 34.8709 4.42564e-06 33.9619 4.42564e-06 32.8639C4.42564e-06 31.1419 0.462004 29.8369 1.386 28.9489C2.31 28.0609 3.657 27.6169 5.427 27.6169C6.111 27.6169 6.816 27.6829 7.542 27.8149V22.9999H9.054V37.5439H7.77601L7.677 36.4189H7.578C7.2 36.8269 6.738 37.1449 6.192 37.3729C5.646 37.5949 5.049 37.7059 4.401 37.7059ZM4.716 36.4369C5.268 36.4369 5.787 36.3319 6.273 36.1219C6.759 35.9119 7.182 35.5819 7.542 35.1319V29.0839C6.906 28.9219 6.216 28.8409 5.472 28.8409C4.14 28.8409 3.15 29.1589 2.502 29.7949C1.854 30.4309 1.53 31.4119 1.53 32.7379C1.53 35.2039 2.592 36.4369 4.716 36.4369ZM20.3573 33.1429H13.1843C13.2263 34.3309 13.5623 35.1949 14.1923 35.7349C14.8223 36.2689 15.7733 36.5359 17.0453 36.5359C17.8613 36.5359 18.7913 36.3919 19.8353 36.1039V37.2829C18.8033 37.5709 17.8073 37.7149 16.8473 37.7149C15.1373 37.7149 13.8443 37.3039 12.9683 36.4819C12.0923 35.6539 11.6543 34.3819 11.6543 32.6659C11.6543 31.5799 11.8283 30.6619 12.1763 29.9119C12.5303 29.1559 13.0373 28.5859 13.6973 28.2019C14.3633 27.8179 15.1613 27.6259 16.0913 27.6259C17.4653 27.6259 18.5183 28.0609 19.2503 28.9309C19.9883 29.8009 20.3573 31.0609 20.3573 32.7109V33.1429ZM16.0733 28.6879C15.1493 28.6879 14.4413 28.9729 13.9493 29.5429C13.4633 30.1069 13.2053 30.9769 13.1753 32.1529H18.9173C18.8873 30.9709 18.6353 30.0979 18.1613 29.5339C17.6873 28.9699 16.9913 28.6879 16.0733 28.6879ZM27.9489 24.4669C28.6329 24.3349 29.2809 24.2389 29.8929 24.1789C30.5109 24.1129 31.1619 24.0799 31.8459 24.0799C33.7599 24.0799 35.1999 24.4489 36.1659 25.1869C37.1379 25.9189 37.6239 27.0589 37.6239 28.6069C37.6239 30.1129 37.1319 31.2529 36.1479 32.0269C35.1699 32.7949 33.6549 33.1789 31.6029 33.1789C30.9969 33.1789 30.2919 33.1459 29.4879 33.0799V37.5439H27.9489V24.4669ZM31.6119 31.9909C32.6799 31.9909 33.5439 31.8679 34.2039 31.6219C34.8639 31.3759 35.3439 31.0069 35.6439 30.5149C35.9499 30.0169 36.1029 29.3839 36.1029 28.6159C36.1029 27.4639 35.7609 26.6179 35.0769 26.0779C34.3929 25.5379 33.3489 25.2679 31.9449 25.2679C31.0629 25.2679 30.2439 25.3369 29.4879 25.4749V31.8559C30.1719 31.9459 30.8799 31.9909 31.6119 31.9909ZM40.0916 27.7789H41.3516L41.4686 29.0569H41.5676C41.9456 28.6309 42.4256 28.2949 43.0076 28.0489C43.5896 27.8029 44.1866 27.6799 44.7986 27.6799C45.1406 27.6799 45.4736 27.7099 45.7976 27.7699V29.1469C45.5036 29.0989 45.1496 29.0749 44.7356 29.0749C44.1836 29.0749 43.6166 29.1889 43.0346 29.4169C42.4526 29.6389 41.9756 29.9689 41.6036 30.4069V37.5439H40.0916V27.7789ZM51.3418 37.7149C50.3818 37.7149 49.5508 37.5319 48.8488 37.1659C48.1468 36.7999 47.6008 36.2389 47.2108 35.4829C46.8268 34.7269 46.6348 33.7849 46.6348 32.6569C46.6348 31.5469 46.8268 30.6169 47.2108 29.8669C47.5948 29.1169 48.1378 28.5559 48.8398 28.1839C49.5418 27.8119 50.3758 27.6259 51.3418 27.6259C52.8238 27.6259 53.9758 28.0459 54.7978 28.8859C55.6258 29.7199 56.0398 30.9769 56.0398 32.6569C56.0398 33.7669 55.8448 34.6999 55.4548 35.4559C55.0708 36.2119 54.5248 36.7789 53.8168 37.1569C53.1148 37.5289 52.2898 37.7149 51.3418 37.7149ZM51.3418 36.4819C53.4598 36.4819 54.5188 35.2129 54.5188 32.6749C54.5188 31.3429 54.2428 30.3769 53.6908 29.7769C53.1448 29.1709 52.3618 28.8679 51.3418 28.8679C50.3218 28.8679 49.5358 29.1679 48.9838 29.7679C48.4378 30.3679 48.1648 31.3279 48.1648 32.6479C48.1648 35.2039 49.2238 36.4819 51.3418 36.4819ZM56.8726 41.0449C57.4906 40.3009 57.9376 39.5269 58.2136 38.7229C58.4956 37.9249 58.6366 37.0219 58.6366 36.0139V27.7789H60.1486V35.9509C60.1486 37.0789 59.9656 38.0989 59.5996 39.0109C59.2396 39.9229 58.6576 40.8259 57.8536 41.7199L56.8726 41.0449ZM59.3656 25.5739C59.0296 25.5739 58.7716 25.4959 58.5916 25.3399C58.4116 25.1839 58.3216 24.9619 58.3216 24.6739C58.3216 24.3859 58.4116 24.1639 58.5916 24.0079C58.7716 23.8459 59.0296 23.7649 59.3656 23.7649C59.7016 23.7649 59.9596 23.8459 60.1396 24.0079C60.3196 24.1639 60.4096 24.3859 60.4096 24.6739C60.4096 24.9619 60.3196 25.1839 60.1396 25.3399C59.9596 25.4959 59.7016 25.5739 59.3656 25.5739ZM71.4393 33.1429H64.2663C64.3083 34.3309 64.6443 35.1949 65.2743 35.7349C65.9043 36.2689 66.8553 36.5359 68.1273 36.5359C68.9433 36.5359 69.8733 36.3919 70.9173 36.1039V37.2829C69.8853 37.5709 68.8893 37.7149 67.9293 37.7149C66.2193 37.7149 64.9263 37.3039 64.0503 36.4819C63.1743 35.6539 62.7363 34.3819 62.7363 32.6659C62.7363 31.5799 62.9103 30.6619 63.2583 29.9119C63.6123 29.1559 64.1193 28.5859 64.7793 28.2019C65.4453 27.8179 66.2433 27.6259 67.1733 27.6259C68.5473 27.6259 69.6003 28.0609 70.3323 28.9309C71.0703 29.8009 71.4393 31.0609 71.4393 32.7109V33.1429ZM67.1553 28.6879C66.2313 28.6879 65.5233 28.9729 65.0313 29.5429C64.5453 30.1069 64.2873 30.9769 64.2573 32.1529H69.9993C69.9693 30.9709 69.7173 30.0979 69.2433 29.5339C68.7693 28.9699 68.0733 28.6879 67.1553 28.6879ZM78.3069 36.4459C78.6849 36.4459 79.1469 36.3859 79.6929 36.2659V37.5169C79.0929 37.6489 78.5169 37.7149 77.9649 37.7149C76.8129 37.7149 75.9339 37.4329 75.3279 36.8689C74.7219 36.2989 74.4189 35.4349 74.4189 34.2769V29.0299H72.3939V27.7789H74.4189L74.6709 24.2239H75.9309V27.7789H79.5309V29.0299H75.9309V33.9979C75.9309 34.8679 76.1259 35.4949 76.5159 35.8789C76.9119 36.2569 77.5089 36.4459 78.3069 36.4459ZM85.4609 37.7149C84.5009 37.7149 83.6699 37.5319 82.9679 37.1659C82.2659 36.7999 81.7199 36.2389 81.3299 35.4829C80.9459 34.7269 80.7539 33.7849 80.7539 32.6569C80.7539 31.5469 80.9459 30.6169 81.3299 29.8669C81.7139 29.1169 82.2569 28.5559 82.9589 28.1839C83.6609 27.8119 84.4949 27.6259 85.4609 27.6259C86.9429 27.6259 88.0949 28.0459 88.9169 28.8859C89.7449 29.7199 90.1589 30.9769 90.1589 32.6569C90.1589 33.7669 89.9639 34.6999 89.5739 35.4559C89.1899 36.2119 88.6439 36.7789 87.9359 37.1569C87.2339 37.5289 86.4089 37.7149 85.4609 37.7149ZM85.4609 36.4819C87.5789 36.4819 88.6379 35.2129 88.6379 32.6749C88.6379 31.3429 88.3619 30.3769 87.8099 29.7769C87.2639 29.1709 86.4809 28.8679 85.4609 28.8679C84.4409 28.8679 83.6549 29.1679 83.1029 29.7679C82.5569 30.3679 82.2839 31.3279 82.2839 32.6479C82.2839 35.2039 83.3429 36.4819 85.4609 36.4819ZM95.5457 37.7149C94.3457 37.7149 93.2837 37.5739 92.3597 37.2919V36.1399C92.9057 36.2959 93.4367 36.4099 93.9527 36.4819C94.4687 36.5479 95.0057 36.5809 95.5637 36.5809C96.5357 36.5809 97.2377 36.4429 97.6697 36.1669C98.1017 35.8849 98.3177 35.4739 98.3177 34.9339C98.3177 34.6459 98.2667 34.4059 98.1647 34.2139C98.0627 34.0219 97.8887 33.8629 97.6427 33.7369C97.3967 33.6049 97.0577 33.4999 96.6257 33.4219L94.9697 33.1519C93.9917 32.9899 93.2837 32.6899 92.8457 32.2519C92.4137 31.8139 92.1977 31.2259 92.1977 30.4879C92.1977 29.6119 92.5547 28.9159 93.2687 28.3999C93.9827 27.8839 95.0687 27.6259 96.5267 27.6259C97.4807 27.6259 98.3837 27.7459 99.2357 27.9859V29.1379C98.3717 28.8919 97.4717 28.7689 96.5357 28.7689C95.5037 28.7689 94.7687 28.9159 94.3307 29.2099C93.8927 29.5039 93.6737 29.9119 93.6737 30.4339C93.6737 30.8299 93.7937 31.1539 94.0337 31.4059C94.2797 31.6579 94.7057 31.8379 95.3117 31.9459L96.9677 32.2159C97.9517 32.3779 98.6687 32.6659 99.1187 33.0799C99.5687 33.4879 99.7937 34.0729 99.7937 34.8349C99.7937 35.7409 99.4367 36.4489 98.7227 36.9589C98.0087 37.4629 96.9497 37.7149 95.5457 37.7149Z" fill="white"/>
</svg>
